# This file uses centimeters as units for non-parametric coordinates.

mtllib righthand.mtl
g default
v 0.735335 -0.781454 0.208079
v 0.625513 -0.773800 0.426481
v 0.454462 -0.767726 0.599805
v 0.238925 -0.763826 0.711086
v 0.000000 -0.762483 0.749430
v -0.238925 -0.763826 0.711086
v -0.454462 -0.767726 0.599805
v -0.625513 -0.773800 0.426480
v -0.735334 -0.781454 0.208079
v -0.773176 -0.789938 -0.034020
v -0.735334 -0.798423 -0.276120
v -0.625513 -0.806077 -0.494521
v -0.454462 -0.812151 -0.667845
v -0.238925 -0.816050 -0.779126
v -0.000000 -0.817394 -0.817471
v 0.238925 -0.816050 -0.779126
v 0.454461 -0.812151 -0.667845
v 0.625513 -0.806077 -0.494521
v 0.735334 -0.798423 -0.276120
v 0.773176 -0.789938 -0.034020
v 0.000000 -2.731476 0.034020
v -0.803325 -1.433612 0.882769
v 0.803325 -1.433612 0.882769
v -0.803325 0.253844 0.882769
v 0.803325 0.253844 0.882769
v -0.803325 0.253844 -0.882769
v 0.803325 0.253844 -0.882769
v -0.803325 -1.433612 -0.882769
v 0.803325 -1.433612 -0.882769
vt 0.737764 0.172746
vt 0.702254 0.103054
vt 0.646946 0.047746
vt 0.577254 0.012236
vt 0.500000 -0.000000
vt 0.422746 0.012236
vt 0.353054 0.047746
vt 0.297746 0.103054
vt 0.262236 0.172746
vt 0.250000 0.250000
vt 0.262236 0.327254
vt 0.297746 0.396946
vt 0.353054 0.452254
vt 0.422746 0.487764
vt 0.500000 0.500000
vt 0.577254 0.487764
vt 0.646946 0.452254
vt 0.702254 0.396946
vt 0.737764 0.327254
vt 0.750000 0.250000
vt 0.250000 0.500000
vt 0.275000 0.500000
vt 0.300000 0.500000
vt 0.325000 0.500000
vt 0.350000 0.500000
vt 0.375000 0.500000
vt 0.400000 0.500000
vt 0.425000 0.500000
vt 0.450000 0.500000
vt 0.475000 0.500000
vt 0.500000 0.500000
vt 0.525000 0.500000
vt 0.550000 0.500000
vt 0.575000 0.500000
vt 0.600000 0.500000
vt 0.625000 0.500000
vt 0.650000 0.500000
vt 0.675000 0.500000
vt 0.700000 0.500000
vt 0.725000 0.500000
vt 0.750000 0.500000
vt 0.500000 1.000000
vt 0.375000 0.000000
vt 0.625000 0.000000
vt 0.625000 0.250000
vt 0.375000 0.250000
vt 0.625000 0.500000
vt 0.375000 0.500000
vt 0.625000 0.750000
vt 0.375000 0.750000
vt 0.625000 1.000000
vt 0.375000 1.000000
vt 0.875000 0.000000
vt 0.875000 0.250000
vt 0.125000 0.000000
vt 0.125000 0.250000
vn 0.000000 0.999387 -0.035023
vn 0.000000 0.999387 -0.035023
vn -0.000000 0.999387 -0.035023
vn -0.000000 0.999387 -0.035023
vn -0.000000 0.999387 -0.035023
vn 0.000000 0.999387 -0.035023
vn 0.000000 0.999386 -0.035023
vn 0.000000 0.999387 -0.035023
vn -0.000000 0.999387 -0.035023
vn -0.000000 0.999387 -0.035023
vn 0.000000 0.999387 -0.035023
vn 0.000000 0.999387 -0.035023
vn -0.000000 0.999387 -0.035023
vn -0.000000 0.999387 -0.035023
vn 0.000000 0.999387 -0.035023
vn -0.000000 0.999386 -0.035023
vn 0.000000 0.999387 -0.035024
vn 0.000000 0.999387 -0.035023
vn -0.000000 0.999386 -0.035024
vn 0.000000 0.999387 -0.035023
vn 0.884556 -0.360027 0.296550
vn 0.754482 -0.352107 0.553875
vn 0.000001 -0.999387 0.035024
vn 0.550005 -0.346253 0.760002
vn 0.289945 -0.342689 0.893586
vn -0.000000 -0.341495 0.939884
vn -0.289945 -0.342689 0.893586
vn -0.550006 -0.346253 0.760002
vn -0.754482 -0.352107 0.553875
vn -0.884555 -0.360027 0.296551
vn -0.929121 -0.369549 0.012951
vn -0.884555 -0.379904 -0.270620
vn -0.754482 -0.390017 -0.527867
vn -0.550005 -0.398606 -0.733899
vn -0.289945 -0.404402 -0.867405
vn 0.000000 -0.406453 -0.913672
vn 0.289945 -0.404402 -0.867405
vn 0.550005 -0.398606 -0.733899
vn 0.754482 -0.390017 -0.527868
vn 0.884555 -0.379904 -0.270620
vn 0.929121 -0.369549 0.012950
vn 0.000000 0.000000 1.000000
vn 0.000000 0.000000 1.000000
vn 0.000000 0.000000 1.000000
vn 0.000000 0.000000 1.000000
vn 0.000000 1.000000 0.000000
vn 0.000000 1.000000 0.000000
vn 0.000000 1.000000 0.000000
vn 0.000000 1.000000 0.000000
vn 0.000000 0.000000 -1.000000
vn 0.000000 0.000000 -1.000000
vn 0.000000 0.000000 -1.000000
vn 0.000000 0.000000 -1.000000
vn 0.000000 -1.000000 0.000000
vn 0.000000 -1.000000 0.000000
vn 0.000000 -1.000000 0.000000
vn 0.000000 -1.000000 0.000000
vn 1.000000 0.000000 0.000000
vn 1.000000 0.000000 0.000000
vn 1.000000 0.000000 0.000000
vn 1.000000 0.000000 0.000000
vn -1.000000 0.000000 0.000000
vn -1.000000 0.000000 0.000000
vn -1.000000 0.000000 0.000000
vn -1.000000 0.000000 0.000000
s 1
g pCone2
usemtl blinn1SG
f 1/1/1 20/20/2 2/2/3
f 20/20/2 19/19/4 2/2/3
f 2/2/3 19/19/4 3/3/5
f 19/19/4 18/18/6 3/3/5
f 3/3/5 18/18/6 4/4/7
f 18/18/6 17/17/8 4/4/7
f 4/4/7 17/17/8 5/5/9
f 5/5/9 17/17/8 6/6/10
f 6/6/10 17/17/8 7/7/11
f 7/7/11 17/17/8 8/8/12
f 8/8/12 17/17/8 9/9/13
f 17/17/8 16/16/14 9/9/13
f 9/9/13 16/16/14 10/10/15
f 16/16/14 15/15/16 10/10/15
f 15/15/16 14/14/17 10/10/15
f 14/14/17 13/13/18 10/10/15
f 13/13/18 12/12/19 10/10/15
f 12/12/19 11/11/20 10/10/15
s 2
f 1/21/21 2/22/22 21/42/23
f 2/22/22 3/23/24 21/42/23
f 3/23/24 4/24/25 21/42/23
f 4/24/25 5/25/26 21/42/23
f 5/25/26 6/26/27 21/42/23
f 6/26/27 7/27/28 21/42/23
f 7/27/28 8/28/29 21/42/23
f 8/28/29 9/29/30 21/42/23
f 9/29/30 10/30/31 21/42/23
f 10/30/31 11/31/32 21/42/23
f 11/31/32 12/32/33 21/42/23
f 12/32/33 13/33/34 21/42/23
f 13/33/34 14/34/35 21/42/23
f 14/34/35 15/35/36 21/42/23
f 15/35/36 16/36/37 21/42/23
f 16/36/37 17/37/38 21/42/23
f 17/37/38 18/38/39 21/42/23
f 18/38/39 19/39/40 21/42/23
f 19/39/40 20/40/41 21/42/23
f 20/40/41 1/41/21 21/42/23
s 3
f 22/43/42 23/44/43 24/46/44
f 24/46/44 23/44/43 25/45/45
s 4
f 24/46/46 25/45/47 26/48/48
f 26/48/48 25/45/47 27/47/49
s 5
f 26/48/50 27/47/51 28/50/52
f 28/50/52 27/47/51 29/49/53
s 6
f 28/50/54 29/49/55 22/52/56
f 22/52/56 29/49/55 23/51/57
s 7
f 23/44/58 29/53/59 25/45/60
f 25/45/60 29/53/59 27/54/61
s 8
f 28/55/62 22/43/63 26/56/64
f 26/56/64 22/43/63 24/46/65
